<mxfile host="app.diagrams.net" modified="2024-04-22T04:39:09.740Z" agent="Mozilla/5.0 (Windows NT 10.0; Win64; x64) AppleWebKit/537.36 (KHTML, like Gecko) Chrome/124.0.0.0 Safari/537.36" version="24.2.7" etag="1kJZWejHEnXD84JoF8W6" type="github">
  <diagram name="第 1 页" id="ECiPEEgfnNbTOm4qk7fX">
    <mxGraphModel>
      <root>
        <mxCell id="0" />
        <mxCell id="1" parent="0" />
      </root>
    </mxGraphModel>
  </diagram>
</mxfile>
